<?xml version="1.0" encoding="UTF-8"?>
<svg width="40px" height="40px" viewBox="0 0 40 40" version="1.1" xmlns="http://www.w3.org/2000/svg" xmlns:xlink="http://www.w3.org/1999/xlink">
    <title>55ADFC64-CA7B-43CF-9DAF-6E9C75AE302E</title>
    <g id="🧪Cluster-reducido---propuesta-2022" stroke="none" stroke-width="1" fill="none" fill-rule="evenodd">
        <g id="Módulo-de-acceso-a-valijas" transform="translate(-1039.000000, -778.000000)">
            <g id="Group-Copy-2" transform="translate(1039.000000, 778.000000)">
                <g id="Group-7" transform="translate(5.000000, 2.000000)">
                    <path d="M1.54463386,6.25367647 L18.8854737,6.25367647 C19.7385514,6.25367647 20.4301075,6.94523261 20.4301075,7.79831033 L20.4301075,32.4038956 C20.4301075,33.2569733 19.7385514,33.9485294 18.8854737,33.9485294 L1.54463386,33.9485294 C0.691556135,33.9485294 1.55459575e-15,33.2569733 0,32.4038956 L0,20.5882507 L0,20.5882507 L0,11.5521827 L0,7.79831033 C-1.04471891e-16,6.94523261 0.691556135,6.25367647 1.54463386,6.25367647 Z" id="Rectangle" fill-rule="nonzero"></path>
                    <path d="M0,11.5521827 L0,8.16366633 C0,7.10880806 0.8315337,6.25367647 1.8572825,6.25367647 L18.572825,6.25367647 C19.5985738,6.25367647 20.4301075,7.10880806 20.4301075,8.16366633 L20.4301075,31.4520748 L18.1806601,33.9485294 C13.7497173,33.9485294 11.0945152,33.9485294 10.2150538,33.9485294 C7.94504182,33.9485294 4.54002389,33.9485294 0,33.9485294 C0,33.9485294 0,33.0933978 0,32.0385396 L0,20.5882507" id="Path" stroke="#270570" stroke-width="1.71428571" stroke-linecap="round" stroke-linejoin="round" fill-rule="nonzero"></path>
                    <path d="M5.35074245,5.74080882 C5.35074245,5.12489554 5.35074245,4.2010256 5.35074245,2.96919903 C5.35074245,1.95067603 6.17831646,1.125 7.19918075,1.125 L12.7444956,1.125 C13.7653599,1.125 14.5929339,1.95067603 14.5929339,2.96919903 C14.5929339,4.19036112 14.5929339,3.1811694 14.5929339,3.8057992" id="Path" stroke="#270570" stroke-width="1.71428571" stroke-linecap="round" stroke-linejoin="round" fill-rule="nonzero"></path>
                    <path d="M5.35074245,33.9485294 L5.35074245,35.4871324 C5.35074245,35.7703813 5.13295981,36 4.86431132,36 C4.59566282,36 4.37788018,35.7703813 4.37788018,35.4871324 L4.37788018,33.9485294" id="Path" stroke="#270570" stroke-width="1.71428571" stroke-linecap="round" stroke-linejoin="round" fill-rule="nonzero"></path>
                    <path d="M15.5657962,33.9485294 L15.5657962,35.4871324 C15.5657962,35.7703813 15.3480136,36 15.0793651,36 C14.8107166,36 14.5929339,35.7703813 14.5929339,35.4871324 L14.5929339,33.9485294" id="Path" stroke="#270570" stroke-width="1.71428571" stroke-linecap="round" stroke-linejoin="round" fill-rule="nonzero"></path>
                    <line x1="5.10752688" y1="10.8694853" x2="5.10752688" y2="29.8455882" id="Line" stroke="#270570" stroke-width="1.71428571" stroke-linecap="round" stroke-linejoin="round" fill-rule="nonzero"></line>
                    <path d="M9.97428668,10.8694853 L9.97428668,17.5332461 M9.97428668,21.5789198 L9.97428668,29.8455881" id="Shape" stroke="#270570" stroke-width="1.71428571" stroke-linecap="round" stroke-linejoin="round" fill-rule="nonzero"></path>
                    <line x1="14.7620107" y1="10.8347183" x2="14.7620107" y2="29.9649814" id="Line" stroke="#270570" stroke-width="1.71428571" stroke-linecap="round" stroke-linejoin="round" fill-rule="nonzero"></line>
                    <g id="Group-6" transform="translate(16.451613, 0.000000)" stroke="#270570" stroke-width="1.71428571">
                        <circle id="Oval" fill="#ADEDDD" cx="7" cy="7" r="6.14285714"></circle>
                        <g id="Group-5" transform="translate(4.967742, 5.142857)" stroke-linecap="round">
                            <polyline id="Path-4" points="1.91935484 0 1.91935484 1.81723563 1.91935484 4.11428571"></polyline>
                            <polyline id="Path-4" transform="translate(1.935484, 1.935484) rotate(-90.000000) translate(-1.935484, -1.935484) " points="1.93548387 1.23198606e-15 1.93548387 1.7097647 1.93548387 3.87096774"></polyline>
                        </g>
                    </g>
                </g>
                <rect id="Rectangle-Copy-6" x="0" y="0" width="40" height="40"></rect>
            </g>
        </g>
    </g>
</svg>